<?xml version="1.0" encoding="UTF-8" standalone="no"?>
<!-- Created with Inkscape (http://www.inkscape.org/) -->

<svg
   width="120"
   height="120"
   viewBox="0 0 120 120"
   version="1.1"
   id="svg1"
   inkscape:version="1.3.2 (091e20e, 2023-11-25, custom)"
   sodipodi:docname="logo-black.svg"
   xmlns:inkscape="http://www.inkscape.org/namespaces/inkscape"
   xmlns:sodipodi="http://sodipodi.sourceforge.net/DTD/sodipodi-0.dtd"
   xmlns="http://www.w3.org/2000/svg"
   xmlns:svg="http://www.w3.org/2000/svg">
  <sodipodi:namedview
     id="namedview1"
     pagecolor="#ffffff"
     bordercolor="#000000"
     borderopacity="0.25"
     inkscape:showpageshadow="2"
     inkscape:pageopacity="0.0"
     inkscape:pagecheckerboard="0"
     inkscape:deskcolor="#d1d1d1"
     inkscape:document-units="px"
     inkscape:zoom="5.1666667"
     inkscape:cx="60"
     inkscape:cy="65.032258"
     inkscape:window-width="1600"
     inkscape:window-height="829"
     inkscape:window-x="-8"
     inkscape:window-y="-8"
     inkscape:window-maximized="1"
     inkscape:current-layer="layer1" />
  <defs
     id="defs1" />
  <g
     inkscape:label="Layer 1"
     inkscape:groupmode="layer"
     id="layer1">
    <path
       style="fill:#000000;fill-opacity:1;stroke:#000000;stroke-width:1.74007;stroke-linecap:round;stroke-linejoin:round;stroke-dasharray:none;stroke-opacity:1;paint-order:normal"
       d="m 51.70706,58.963168 c 0,0 -4.487659,2.631924 -18.912282,-9.357947 C 18.370157,37.615352 9.7153843,8.9566384 9.7153843,8.9566384 c 0,0 43.9149607,14.9142276 47.4409787,19.8856366 3.526018,4.97141 1.602735,27.781407 1.602735,27.781407 z"
       id="path8" />
    <path
       style="fill:#000000;fill-opacity:1;stroke:#000000;stroke-width:1.74007;stroke-linecap:round;stroke-linejoin:round;stroke-dasharray:none;stroke-opacity:1;paint-order:normal"
       d="m 68.680039,61.114958 c 0,0 4.48766,-2.631924 18.912283,9.357947 14.424618,11.989869 23.079388,40.648575 23.079388,40.648575 0,0 -43.914955,-14.914216 -47.440974,-19.88563 -3.526018,-4.97141 -1.602735,-27.781406 -1.602735,-27.781406 z"
       id="path10" />
    <path
       style="fill:#000000;fill-opacity:1;stroke:#000000;stroke-width:1.74007;stroke-linecap:round;stroke-linejoin:round;stroke-dasharray:none;stroke-opacity:1;paint-order:normal"
       d="m 68.680039,58.963168 c 0,0 4.48766,2.631924 18.912283,-9.357947 C 102.01694,37.615352 110.67171,8.9566384 110.67171,8.9566384 c 0,0 -43.914955,14.9142276 -47.440974,19.8856366 -3.526018,4.97141 -1.602735,27.781407 -1.602735,27.781407 z"
       id="path11" />
    <path
       style="fill:#000000;fill-opacity:1;stroke:#000000;stroke-width:1.74007;stroke-linecap:round;stroke-linejoin:round;stroke-dasharray:none;stroke-opacity:1;paint-order:normal"
       d="m 51.70706,61.193085 c 0,0 -4.487659,-2.631923 -18.912282,9.357947 C 18.370157,82.540901 9.7153843,111.19961 9.7153843,111.19961 c 0,0 43.9149607,-14.914218 47.4409787,-19.885631 3.526018,-4.971411 1.602735,-27.781407 1.602735,-27.781407 z"
       id="path12" />
  </g>
</svg>
